<?xml version="1.0" encoding="utf-8"?>
<!-- Generator: Adobe Illustrator 26.3.1, SVG Export Plug-In . SVG Version: 6.00 Build 0)  -->
<svg version="1.1" id="Layer_1" xmlns="http://www.w3.org/2000/svg" xmlns:xlink="http://www.w3.org/1999/xlink" x="0px" y="0px"
	 viewBox="291 300 785 165" xml:space="preserve">
<style type="text/css">
	.st0{fill:#003264;}
	.st1{fill:#004B96;}
	.st2{fill:#0064C8;}
	.st3{fill:#1E1E1E;}
</style>
<g>
	<g>
		<polygon class="st0" points="482.5,415.7 387.5,463.2 387.5,399.8 482.5,352.3 		"/>
		<polygon class="st1" points="292.5,415.7 387.5,463.2 387.5,399.8 292.5,352.3 		"/>
		<polygon class="st2" points="324.2,336.5 387.5,368.2 387.5,304.8 		"/>
	</g>
	<g>
		<path class="st3" d="M545.1,352.6c3-2.9,6.5-5.2,10.6-6.8c4.1-1.6,8.5-2.4,13.3-2.4c4.6,0,8.9,0.8,13,2.5c4,1.7,7.7,4.2,10.9,7.6
			l7.9-7.6c-3.9-4.4-8.6-7.7-14.1-9.9c-5.5-2.2-11.6-3.3-18.1-3.3c-6.5,0-12.4,1.1-17.9,3.2c-5.5,2.1-10.2,5.2-14.3,9.1
			c-4,3.9-7.2,8.5-9.5,13.8c-2.3,5.3-3.4,11-3.4,17.3c0,6.3,1.1,12.1,3.4,17.3c2.3,5.3,5.4,9.8,9.4,13.8c4,3.9,8.7,7,14.2,9.1
			c5.5,2.1,11.4,3.2,17.9,3.2c6.6,0,12.7-1.1,18.3-3.4c5.5-2.3,10.3-5.6,14.1-9.9l-7.9-7.6c-3.2,3.5-6.9,6-10.9,7.7
			c-4,1.7-8.4,2.5-13,2.5c-4.8,0-9.2-0.8-13.3-2.4c-4.1-1.6-7.6-3.9-10.6-6.8c-3-2.9-5.3-6.4-7-10.4c-1.7-4-2.5-8.4-2.5-13
			c0-4.7,0.8-9,2.5-13C539.8,358.9,542.1,355.5,545.1,352.6z"/>
		<path class="st3" d="M642,353.5c-5.1,0-10,0.7-14.6,2.1c-4.7,1.4-8.6,3.5-11.9,6.1l4.9,8.7c2.5-2.1,5.6-3.8,9.2-5
			c3.6-1.3,7.4-1.9,11.2-1.9c5.7,0,10,1.4,12.9,4.1c2.9,2.7,4.3,6.5,4.3,11.5v2.3h-18.4c-6.4,0-11.5,0.8-15.2,2.5
			c-3.8,1.7-6.5,4-8.1,6.8c-1.7,2.8-2.5,6-2.5,9.5c0,3.6,1,6.9,2.9,9.8c1.9,2.9,4.7,5.1,8.3,6.7c3.6,1.6,7.8,2.4,12.6,2.4
			c5.9,0,10.8-1.1,14.7-3.3c2.7-1.6,4.9-3.5,6.4-5.9v8.5h11v-38.8c0-8.8-2.4-15.4-7.2-19.7C657.7,355.7,650.9,353.5,642,353.5z
			 M650.8,407.3c-3.3,1.9-7.1,2.9-11.5,2.9c-4.4,0-7.9-0.9-10.4-2.9c-2.5-1.9-3.8-4.4-3.8-7.6c0-2.7,1-5.1,3-7
			c2-1.9,5.9-2.9,11.8-2.9h18v9C656.5,402.5,654.1,405.3,650.8,407.3z"/>
		<path class="st3" d="M732.4,386.3c-2.4-1.2-5-2.2-7.9-2.9c-2.9-0.7-5.8-1.3-8.7-1.7c-2.9-0.4-5.6-1-7.9-1.6
			c-2.4-0.6-4.3-1.6-5.8-2.7c-1.5-1.2-2.2-2.9-2.2-5c0-2.6,1.3-4.7,3.8-6.4c2.5-1.7,6.3-2.5,11.4-2.5c3.2,0,6.3,0.4,9.5,1.1
			c3.2,0.7,6.2,2.1,9.1,4l5-9.2c-2.7-1.9-6.3-3.3-10.6-4.3c-4.3-1-8.6-1.5-12.8-1.5c-5.5,0-10.3,0.8-14.3,2.4
			c-4,1.6-7.1,3.8-9.3,6.7c-2.2,2.9-3.3,6.3-3.3,10.2c0,3.7,0.7,6.7,2.2,8.9c1.5,2.2,3.4,4,5.8,5.2c2.4,1.3,5.1,2.2,8,2.9
			c2.9,0.7,5.8,1.3,8.7,1.7c2.9,0.4,5.6,1,7.9,1.5c2.4,0.6,4.3,1.4,5.8,2.5c1.5,1.1,2.2,2.7,2.2,4.7c0,2.7-1.2,4.9-3.6,6.4
			c-2.4,1.5-6.3,2.3-11.7,2.3c-4.2,0-8.3-0.6-12.4-1.9c-4-1.3-7.4-2.9-10.2-4.7l-4.9,9.2c2.7,2.1,6.5,3.9,11.3,5.3
			c4.8,1.5,9.9,2.2,15.2,2.2c5.7,0,10.7-0.8,14.8-2.4c4.1-1.6,7.3-3.8,9.6-6.6c2.3-2.8,3.4-6.2,3.4-10.1c0-3.6-0.7-6.6-2.2-8.7
			C736.7,389.2,734.8,387.5,732.4,386.3z"/>
		<path class="st3" d="M774.6,366.5c3.3-1.9,7.1-2.8,11.3-2.8c3.5,0,6.7,0.7,9.8,2.2c3,1.5,5.6,3.8,7.7,7l8.9-5.7
			c-2.5-4.5-6-7.9-10.6-10.3c-4.6-2.3-9.8-3.5-15.6-3.5c-6.6,0-12.4,1.4-17.5,4.2c-5.1,2.8-9.2,6.7-12.1,11.6
			c-2.9,4.9-4.4,10.6-4.4,17c0,6.4,1.5,12.1,4.4,17c2.9,4.9,6.9,8.8,12.1,11.6c5.1,2.8,11,4.2,17.5,4.2c5.8,0,11-1.2,15.6-3.6
			c4.6-2.4,8.1-5.8,10.6-10.3l-8.9-5.6c-2.1,3.2-4.7,5.5-7.7,7c-3,1.5-6.3,2.2-9.8,2.2c-4.2,0-8-0.9-11.3-2.8
			c-3.3-1.9-5.9-4.5-7.9-7.9c-1.9-3.4-2.9-7.4-2.9-12c0-4.6,1-8.6,2.9-11.9C768.7,371,771.3,368.4,774.6,366.5z"/>
		<path class="st3" d="M853.7,353.5c-5.1,0-10,0.7-14.6,2.1c-4.7,1.4-8.6,3.5-11.9,6.1l4.9,8.7c2.5-2.1,5.6-3.8,9.2-5
			c3.6-1.3,7.4-1.9,11.2-1.9c5.7,0,10,1.4,12.9,4.1c2.9,2.7,4.3,6.5,4.3,11.5v2.3h-18.4c-6.4,0-11.5,0.8-15.2,2.5s-6.5,4-8.1,6.8
			c-1.7,2.8-2.5,6-2.5,9.5c0,3.6,1,6.9,2.9,9.8c1.9,2.9,4.7,5.1,8.3,6.7c3.6,1.6,7.8,2.4,12.6,2.4c5.9,0,10.8-1.1,14.7-3.3
			c2.7-1.6,4.9-3.5,6.4-5.9v8.5h11v-38.8c0-8.8-2.4-15.4-7.2-19.7C869.4,355.7,862.6,353.5,853.7,353.5z M862.5,407.3
			c-3.3,1.9-7.1,2.9-11.5,2.9c-4.4,0-7.9-0.9-10.4-2.9c-2.5-1.9-3.8-4.4-3.8-7.6c0-2.7,1-5.1,3-7c2-1.9,5.9-2.9,11.8-2.9h18v9
			C868.2,402.5,865.8,405.3,862.5,407.3z"/>
		<path class="st3" d="M951.9,363.9c-2.2-2.8-4.8-5.1-7.8-6.7c-4.4-2.4-9.3-3.6-14.7-3.6c-6.2,0-11.8,1.4-16.7,4.1
			c-4.9,2.7-8.8,6.6-11.6,11.5c-2.8,4.9-4.2,10.6-4.2,17.2c0,6.6,1.4,12.3,4.2,17.2c2.8,4.9,6.7,8.8,11.6,11.5
			c4.9,2.8,10.5,4.1,16.7,4.1c5.6,0,10.6-1.2,14.9-3.7c3.1-1.8,5.8-4.2,8-7.2v10.2h11.2v-90h-11.6V363.9z M949.2,398.2
			c-1.9,3.4-4.5,6.1-7.8,7.9c-3.3,1.9-6.9,2.8-11,2.8c-4.1,0-7.8-0.9-11-2.8c-3.2-1.9-5.8-4.5-7.8-7.9c-1.9-3.4-2.9-7.4-2.9-12
			c0-4.6,1-8.6,2.9-11.9c1.9-3.4,4.5-6,7.8-7.8c3.2-1.9,6.9-2.8,11-2.8c4,0,7.7,0.9,11,2.8c3.3,1.9,5.9,4.5,7.8,7.8
			c1.9,3.4,2.9,7.3,2.9,11.9C952,390.8,951.1,394.8,949.2,398.2z"/>
		<path class="st3" d="M991.5,326.6c-2.3,0-4.1,0.7-5.6,2.2c-1.5,1.5-2.2,3.3-2.2,5.5c0,2.1,0.7,3.9,2.2,5.3
			c1.5,1.5,3.4,2.2,5.6,2.2c2.3,0,4.2-0.7,5.7-2.2c1.5-1.5,2.2-3.3,2.2-5.5c0-2.1-0.7-3.9-2.2-5.3
			C995.6,327.3,993.8,326.6,991.5,326.6z"/>
		<rect x="985.7" y="354.1" class="st3" width="11.6" height="64.3"/>
		<path class="st3" d="M1066.4,360c-4.8-4.3-11.6-6.4-20.4-6.4c-5.1,0-10,0.7-14.6,2.1c-4.7,1.4-8.6,3.5-11.9,6.1l4.9,8.7
			c2.5-2.1,5.6-3.8,9.2-5c3.6-1.3,7.4-1.9,11.2-1.9c5.7,0,10,1.4,12.9,4.1c2.9,2.7,4.3,6.5,4.3,11.5v2.3h-18.4
			c-6.4,0-11.5,0.8-15.2,2.5s-6.5,4-8.1,6.8c-1.7,2.8-2.5,6-2.5,9.5c0,3.6,1,6.9,2.9,9.8c1.9,2.9,4.7,5.1,8.3,6.7
			c3.6,1.6,7.8,2.4,12.6,2.4c5.9,0,10.8-1.1,14.7-3.3c2.7-1.6,4.9-3.5,6.4-5.9v8.5h11v-38.8C1073.5,370.8,1071.1,364.2,1066.4,360z
			 M1054.8,407.3c-3.3,1.9-7.1,2.9-11.5,2.9c-4.4,0-7.9-0.9-10.4-2.9c-2.5-1.9-3.8-4.4-3.8-7.6c0-2.7,1-5.1,3-7
			c2-1.9,5.9-2.9,11.8-2.9h18v9C1060.4,402.5,1058,405.3,1054.8,407.3z"/>
	</g>
</g>
</svg>
