<svg width="223" height="40" viewBox="0 0 223 40" fill="none" xmlns="http://www.w3.org/2000/svg">
<path d="M47.9988 27.9999L23.9994 40V23.9999L47.9988 11.9998V27.9999Z" fill="#18191A"/>
<path d="M0 27.9999L23.9994 40V23.9999L0 11.9998V27.9999Z" fill="#616771"/>
<path d="M7.99933 8.00009L23.9995 16.0002V0L7.99933 8.00009Z" fill="#90949C"/>
<path d="M75.482 34.54C72.89 34.54 70.67 33.976 68.822 32.848C66.974 31.708 65.552 30.124 64.556 28.096C63.572 26.068 63.08 23.716 63.08 21.04C63.08 18.364 63.572 16.012 64.556 13.984C65.552 11.956 66.974 10.378 68.822 9.25C70.67 8.11 72.89 7.54 75.482 7.54C78.47 7.54 80.96 8.29 82.952 9.79C84.944 11.278 86.342 13.288 87.146 15.82L82.772 17.026C82.268 15.334 81.41 14.014 80.198 13.066C78.986 12.106 77.414 11.626 75.482 11.626C73.742 11.626 72.29 12.016 71.126 12.796C69.974 13.576 69.104 14.674 68.516 16.09C67.94 17.494 67.646 19.144 67.634 21.04C67.634 22.936 67.922 24.592 68.498 26.008C69.086 27.412 69.962 28.504 71.126 29.284C72.29 30.064 73.742 30.454 75.482 30.454C77.414 30.454 78.986 29.974 80.198 29.014C81.41 28.054 82.268 26.734 82.772 25.054L87.146 26.26C86.342 28.792 84.944 30.808 82.952 32.308C80.96 33.796 78.47 34.54 75.482 34.54ZM96.5341 34.54C95.1301 34.54 93.9421 34.276 92.9701 33.748C91.9981 33.208 91.2601 32.494 90.7561 31.606C90.2641 30.718 90.0181 29.74 90.0181 28.672C90.0181 27.736 90.1741 26.896 90.4861 26.152C90.7981 25.396 91.2781 24.748 91.9261 24.208C92.5741 23.656 93.4141 23.206 94.4461 22.858C95.2261 22.606 96.1381 22.378 97.1821 22.174C98.2381 21.97 99.3781 21.784 100.602 21.616C101.838 21.436 103.128 21.244 104.472 21.04L102.924 21.922C102.936 20.578 102.636 19.588 102.024 18.952C101.412 18.316 100.38 17.998 98.9281 17.998C98.0521 17.998 97.2061 18.202 96.3901 18.61C95.5741 19.018 95.0041 19.72 94.6801 20.716L90.7201 19.474C91.2001 17.83 92.1121 16.51 93.4561 15.514C94.8121 14.518 96.6361 14.02 98.9281 14.02C100.656 14.02 102.174 14.302 103.482 14.866C104.802 15.43 105.78 16.354 106.416 17.638C106.764 18.322 106.974 19.024 107.046 19.744C107.118 20.452 107.154 21.226 107.154 22.066V34H103.356V29.788L103.986 30.472C103.11 31.876 102.084 32.908 100.908 33.568C99.7441 34.216 98.2861 34.54 96.5341 34.54ZM97.3981 31.084C98.3821 31.084 99.2221 30.91 99.9181 30.562C100.614 30.214 101.166 29.788 101.574 29.284C101.994 28.78 102.276 28.306 102.42 27.862C102.648 27.31 102.774 26.68 102.798 25.972C102.834 25.252 102.852 24.67 102.852 24.226L104.184 24.622C102.876 24.826 101.754 25.006 100.818 25.162C99.8821 25.318 99.0781 25.468 98.4061 25.612C97.7341 25.744 97.1401 25.894 96.6241 26.062C96.1201 26.242 95.6941 26.452 95.3461 26.692C94.9981 26.932 94.7281 27.208 94.5361 27.52C94.3561 27.832 94.2661 28.198 94.2661 28.618C94.2661 29.098 94.3861 29.524 94.6261 29.896C94.8661 30.256 95.2141 30.544 95.6701 30.76C96.1381 30.976 96.7141 31.084 97.3981 31.084ZM119.346 34.54C116.946 34.54 114.996 34 113.496 32.92C111.996 31.84 111.084 30.322 110.76 28.366L115.188 27.682C115.416 28.642 115.92 29.398 116.7 29.95C117.48 30.502 118.464 30.778 119.652 30.778C120.696 30.778 121.5 30.574 122.064 30.166C122.64 29.746 122.928 29.176 122.928 28.456C122.928 28.012 122.82 27.658 122.604 27.394C122.4 27.118 121.944 26.854 121.236 26.602C120.528 26.35 119.442 26.032 117.978 25.648C116.346 25.216 115.05 24.754 114.09 24.262C113.13 23.758 112.44 23.164 112.02 22.48C111.6 21.796 111.39 20.968 111.39 19.996C111.39 18.784 111.708 17.728 112.344 16.828C112.98 15.928 113.868 15.238 115.008 14.758C116.148 14.266 117.492 14.02 119.04 14.02C120.552 14.02 121.89 14.254 123.054 14.722C124.23 15.19 125.178 15.856 125.898 16.72C126.618 17.584 127.062 18.598 127.23 19.762L122.802 20.554C122.694 19.726 122.316 19.072 121.668 18.592C121.032 18.112 120.18 17.842 119.112 17.782C118.092 17.722 117.27 17.878 116.646 18.25C116.022 18.61 115.71 19.12 115.71 19.78C115.71 20.152 115.836 20.47 116.088 20.734C116.34 20.998 116.844 21.262 117.6 21.526C118.368 21.79 119.508 22.114 121.02 22.498C122.568 22.894 123.804 23.35 124.728 23.866C125.664 24.37 126.336 24.976 126.744 25.684C127.164 26.392 127.374 27.25 127.374 28.258C127.374 30.214 126.66 31.75 125.232 32.866C123.816 33.982 121.854 34.54 119.346 34.54ZM139.759 34.54C137.755 34.54 136.045 34.096 134.629 33.208C133.213 32.308 132.127 31.084 131.371 29.536C130.627 27.988 130.249 26.236 130.237 24.28C130.249 22.288 130.639 20.524 131.407 18.988C132.187 17.44 133.291 16.228 134.719 15.352C136.147 14.464 137.845 14.02 139.813 14.02C142.021 14.02 143.887 14.578 145.411 15.694C146.947 16.798 147.949 18.31 148.417 20.23L144.097 21.4C143.761 20.356 143.203 19.546 142.423 18.97C141.643 18.382 140.755 18.088 139.759 18.088C138.631 18.088 137.701 18.358 136.969 18.898C136.237 19.426 135.697 20.158 135.349 21.094C135.001 22.03 134.827 23.092 134.827 24.28C134.827 26.128 135.241 27.622 136.069 28.762C136.897 29.902 138.127 30.472 139.759 30.472C140.911 30.472 141.817 30.208 142.477 29.68C143.149 29.152 143.653 28.39 143.989 27.394L148.417 28.384C147.817 30.364 146.767 31.888 145.267 32.956C143.767 34.012 141.931 34.54 139.759 34.54ZM157.144 34.54C155.74 34.54 154.552 34.276 153.58 33.748C152.608 33.208 151.87 32.494 151.366 31.606C150.874 30.718 150.628 29.74 150.628 28.672C150.628 27.736 150.784 26.896 151.096 26.152C151.408 25.396 151.888 24.748 152.536 24.208C153.184 23.656 154.024 23.206 155.056 22.858C155.836 22.606 156.748 22.378 157.792 22.174C158.848 21.97 159.988 21.784 161.212 21.616C162.448 21.436 163.738 21.244 165.082 21.04L163.534 21.922C163.546 20.578 163.246 19.588 162.634 18.952C162.022 18.316 160.99 17.998 159.538 17.998C158.662 17.998 157.816 18.202 157 18.61C156.184 19.018 155.614 19.72 155.29 20.716L151.33 19.474C151.81 17.83 152.722 16.51 154.066 15.514C155.422 14.518 157.246 14.02 159.538 14.02C161.266 14.02 162.784 14.302 164.092 14.866C165.412 15.43 166.39 16.354 167.026 17.638C167.374 18.322 167.584 19.024 167.656 19.744C167.728 20.452 167.764 21.226 167.764 22.066V34H163.966V29.788L164.596 30.472C163.72 31.876 162.694 32.908 161.518 33.568C160.354 34.216 158.896 34.54 157.144 34.54ZM158.008 31.084C158.992 31.084 159.832 30.91 160.528 30.562C161.224 30.214 161.776 29.788 162.184 29.284C162.604 28.78 162.886 28.306 163.03 27.862C163.258 27.31 163.384 26.68 163.408 25.972C163.444 25.252 163.462 24.67 163.462 24.226L164.794 24.622C163.486 24.826 162.364 25.006 161.428 25.162C160.492 25.318 159.688 25.468 159.016 25.612C158.344 25.744 157.75 25.894 157.234 26.062C156.73 26.242 156.304 26.452 155.956 26.692C155.608 26.932 155.338 27.208 155.146 27.52C154.966 27.832 154.876 28.198 154.876 28.618C154.876 29.098 154.996 29.524 155.236 29.896C155.476 30.256 155.824 30.544 156.28 30.76C156.748 30.976 157.324 31.084 158.008 31.084ZM180.244 34.54C178.456 34.54 176.896 34.09 175.564 33.19C174.232 32.29 173.2 31.066 172.468 29.518C171.736 27.97 171.37 26.224 171.37 24.28C171.37 22.312 171.736 20.56 172.468 19.024C173.212 17.476 174.262 16.258 175.618 15.37C176.974 14.47 178.57 14.02 180.406 14.02C182.254 14.02 183.802 14.47 185.05 15.37C186.31 16.258 187.264 17.476 187.912 19.024C188.56 20.572 188.884 22.324 188.884 24.28C188.884 26.212 188.56 27.958 187.912 29.518C187.264 31.066 186.298 32.29 185.014 33.19C183.73 34.09 182.14 34.54 180.244 34.54ZM180.91 30.652C182.074 30.652 183.01 30.388 183.718 29.86C184.438 29.32 184.96 28.57 185.284 27.61C185.62 26.65 185.788 25.54 185.788 24.28C185.788 23.008 185.62 21.898 185.284 20.95C184.96 19.99 184.45 19.246 183.754 18.718C183.058 18.178 182.158 17.908 181.054 17.908C179.89 17.908 178.93 18.196 178.174 18.772C177.418 19.336 176.86 20.104 176.5 21.076C176.14 22.036 175.96 23.104 175.96 24.28C175.96 25.468 176.134 26.548 176.482 27.52C176.842 28.48 177.388 29.242 178.12 29.806C178.852 30.37 179.782 30.652 180.91 30.652ZM185.788 34V20.356H185.248V8.08H189.622V34H185.788ZM195.028 11.608V7.63H199.366V11.608H195.028ZM195.028 34V14.56H199.366V34H195.028ZM210.194 34.54C208.79 34.54 207.602 34.276 206.63 33.748C205.658 33.208 204.92 32.494 204.416 31.606C203.924 30.718 203.678 29.74 203.678 28.672C203.678 27.736 203.834 26.896 204.146 26.152C204.458 25.396 204.938 24.748 205.586 24.208C206.234 23.656 207.074 23.206 208.106 22.858C208.886 22.606 209.798 22.378 210.842 22.174C211.898 21.97 213.038 21.784 214.262 21.616C215.498 21.436 216.788 21.244 218.132 21.04L216.584 21.922C216.596 20.578 216.296 19.588 215.684 18.952C215.072 18.316 214.04 17.998 212.588 17.998C211.712 17.998 210.866 18.202 210.05 18.61C209.234 19.018 208.664 19.72 208.34 20.716L204.38 19.474C204.86 17.83 205.772 16.51 207.116 15.514C208.472 14.518 210.296 14.02 212.588 14.02C214.316 14.02 215.834 14.302 217.142 14.866C218.462 15.43 219.44 16.354 220.076 17.638C220.424 18.322 220.634 19.024 220.706 19.744C220.778 20.452 220.814 21.226 220.814 22.066V34H217.016V29.788L217.646 30.472C216.77 31.876 215.744 32.908 214.568 33.568C213.404 34.216 211.946 34.54 210.194 34.54ZM211.058 31.084C212.042 31.084 212.882 30.91 213.578 30.562C214.274 30.214 214.826 29.788 215.234 29.284C215.654 28.78 215.936 28.306 216.08 27.862C216.308 27.31 216.434 26.68 216.458 25.972C216.494 25.252 216.512 24.67 216.512 24.226L217.844 24.622C216.536 24.826 215.414 25.006 214.478 25.162C213.542 25.318 212.738 25.468 212.066 25.612C211.394 25.744 210.8 25.894 210.284 26.062C209.78 26.242 209.354 26.452 209.006 26.692C208.658 26.932 208.388 27.208 208.196 27.52C208.016 27.832 207.926 28.198 207.926 28.618C207.926 29.098 208.046 29.524 208.286 29.896C208.526 30.256 208.874 30.544 209.33 30.76C209.798 30.976 210.374 31.084 211.058 31.084Z" fill="#18191A"/>
</svg>
