<svg xmlns="http://www.w3.org/2000/svg" xmlns:xlink="http://www.w3.org/1999/xlink" version="1.1" width="600" height="130" viewBox="0 0 600 130" xml:space="preserve">
<desc>Created with Fabric.js 3.5.0</desc>
<defs>
</defs>
<rect x="0" y="0" width="100%" height="100%" fill="none"/>
<g transform="matrix(0.7321 0 0 0.7321 298.6638 67.3606)" id="47337">
<g style="" vector-effect="non-scaling-stroke">
		<g transform="matrix(1 0 0 1 -248 23.75)" id="Layer_1">
<polygon style="stroke: none; stroke-width: 1; stroke-dasharray: none; stroke-linecap: butt; stroke-dashoffset: 0; stroke-linejoin: miter; stroke-miterlimit: 4; is-custom-font: none; font-file-url: none; fill: rgb(0,50,100); fill-rule: nonzero; opacity: 1;" points="47.5,7.95 -47.5,55.45 -47.5,-7.95 47.5,-55.45 "/>
</g>
		<g transform="matrix(1 0 0 1 -343 23.75)" id="Layer_1">
<polygon style="stroke: none; stroke-width: 1; stroke-dasharray: none; stroke-linecap: butt; stroke-dashoffset: 0; stroke-linejoin: miter; stroke-miterlimit: 4; is-custom-font: none; font-file-url: none; fill: rgb(0,75,150); fill-rule: nonzero; opacity: 1;" points="-47.5,7.95 47.5,55.45 47.5,-7.95 -47.5,-55.45 "/>
</g>
		<g transform="matrix(1 0 0 1 -327.15 -47.5)" id="Layer_1">
<polygon style="stroke: none; stroke-width: 1; stroke-dasharray: none; stroke-linecap: butt; stroke-dashoffset: 0; stroke-linejoin: miter; stroke-miterlimit: 4; is-custom-font: none; font-file-url: none; fill: rgb(0,100,200); fill-rule: nonzero; opacity: 1;" points="-31.65,0 31.65,31.7 31.65,-31.7 "/>
</g>
		<g transform="matrix(1 0 0 1 -120.85 -7.9)" id="Layer_1">
<path style="stroke: none; stroke-width: 1; stroke-dasharray: none; stroke-linecap: butt; stroke-dashoffset: 0; stroke-linejoin: miter; stroke-miterlimit: 4; is-custom-font: none; font-file-url: none; fill: rgb(30,30,30); fill-rule: nonzero; opacity: 1;" transform=" translate(-562.15, -376.1)" d="M 545.1 352.6 c 3 -2.9 6.5 -5.2 10.6 -6.8 c 4.1 -1.6 8.5 -2.4 13.3 -2.4 c 4.6 0 8.9 0.8 13 2.5 c 4 1.7 7.7 4.2 10.9 7.6 l 7.9 -7.6 c -3.9 -4.4 -8.6 -7.7 -14.1 -9.9 c -5.5 -2.2 -11.6 -3.3 -18.1 -3.3 c -6.5 0 -12.4 1.1 -17.9 3.2 c -5.5 2.1 -10.2 5.2 -14.3 9.1 c -4 3.9 -7.2 8.5 -9.5 13.8 c -2.3 5.3 -3.4 11 -3.4 17.3 c 0 6.3 1.1 12.1 3.4 17.3 c 2.3 5.3 5.4 9.8 9.4 13.8 c 4 3.9 8.7 7 14.2 9.1 c 5.5 2.1 11.4 3.2 17.9 3.2 c 6.6 0 12.7 -1.1 18.3 -3.4 c 5.5 -2.3 10.3 -5.6 14.1 -9.9 l -7.9 -7.6 c -3.2 3.5 -6.9 6 -10.9 7.7 c -4 1.7 -8.4 2.5 -13 2.5 c -4.8 0 -9.2 -0.8 -13.3 -2.4 c -4.1 -1.6 -7.6 -3.9 -10.6 -6.8 c -3 -2.9 -5.3 -6.4 -7 -10.4 c -1.7 -4 -2.5 -8.4 -2.5 -13 c 0 -4.7 0.8 -9 2.5 -13 C 539.8 358.9 542.1 355.5 545.1 352.6 z" stroke-linecap="round"/>
</g>
		<g transform="matrix(1 0 0 1 -41.25 2.3)" id="Layer_1">
<path style="stroke: none; stroke-width: 1; stroke-dasharray: none; stroke-linecap: butt; stroke-dashoffset: 0; stroke-linejoin: miter; stroke-miterlimit: 4; is-custom-font: none; font-file-url: none; fill: rgb(30,30,30); fill-rule: nonzero; opacity: 1;" transform=" translate(-641.75, -386.3)" d="M 642 353.5 c -5.1 0 -10 0.7 -14.6 2.1 c -4.7 1.4 -8.6 3.5 -11.9 6.1 l 4.9 8.7 c 2.5 -2.1 5.6 -3.8 9.2 -5 c 3.6 -1.3 7.4 -1.9 11.2 -1.9 c 5.7 0 10 1.4 12.9 4.1 c 2.9 2.7 4.3 6.5 4.3 11.5 v 2.3 h -18.4 c -6.4 0 -11.5 0.8 -15.2 2.5 c -3.8 1.7 -6.5 4 -8.1 6.8 c -1.7 2.8 -2.5 6 -2.5 9.5 c 0 3.6 1 6.9 2.9 9.8 c 1.9 2.9 4.7 5.1 8.3 6.7 c 3.6 1.6 7.8 2.4 12.6 2.4 c 5.9 0 10.8 -1.1 14.7 -3.3 c 2.7 -1.6 4.9 -3.5 6.4 -5.9 v 8.5 h 11 v -38.8 c 0 -8.8 -2.4 -15.4 -7.2 -19.7 C 657.7 355.7 650.9 353.5 642 353.5 z M 650.8 407.3 c -3.3 1.9 -7.1 2.9 -11.5 2.9 c -4.4 0 -7.9 -0.9 -10.4 -2.9 c -2.5 -1.9 -3.8 -4.4 -3.8 -7.6 c 0 -2.7 1 -5.1 3 -7 c 2 -1.9 5.9 -2.9 11.8 -2.9 h 18 v 9 C 656.5 402.5 654.1 405.3 650.8 407.3 z" stroke-linecap="round"/>
</g>
		<g transform="matrix(1 0 0 1 30.35 2.35)" id="Layer_1">
<path style="stroke: none; stroke-width: 1; stroke-dasharray: none; stroke-linecap: butt; stroke-dashoffset: 0; stroke-linejoin: miter; stroke-miterlimit: 4; is-custom-font: none; font-file-url: none; fill: rgb(30,30,30); fill-rule: nonzero; opacity: 1;" transform=" translate(-713.35, -386.35)" d="M 732.4 386.3 c -2.4 -1.2 -5 -2.2 -7.9 -2.9 c -2.9 -0.7 -5.8 -1.3 -8.7 -1.7 c -2.9 -0.4 -5.6 -1 -7.9 -1.6 c -2.4 -0.6 -4.3 -1.6 -5.8 -2.7 c -1.5 -1.2 -2.2 -2.9 -2.2 -5 c 0 -2.6 1.3 -4.7 3.8 -6.4 c 2.5 -1.7 6.3 -2.5 11.4 -2.5 c 3.2 0 6.3 0.4 9.5 1.1 c 3.2 0.7 6.2 2.1 9.1 4 l 5 -9.2 c -2.7 -1.9 -6.3 -3.3 -10.6 -4.3 c -4.3 -1 -8.6 -1.5 -12.8 -1.5 c -5.5 0 -10.3 0.8 -14.3 2.4 c -4 1.6 -7.1 3.8 -9.3 6.7 c -2.2 2.9 -3.3 6.3 -3.3 10.2 c 0 3.7 0.7 6.7 2.2 8.9 c 1.5 2.2 3.4 4 5.8 5.2 c 2.4 1.3 5.1 2.2 8 2.9 c 2.9 0.7 5.8 1.3 8.7 1.7 c 2.9 0.4 5.6 1 7.9 1.5 c 2.4 0.6 4.3 1.4 5.8 2.5 c 1.5 1.1 2.2 2.7 2.2 4.7 c 0 2.7 -1.2 4.9 -3.6 6.4 c -2.4 1.5 -6.3 2.3 -11.7 2.3 c -4.2 0 -8.3 -0.6 -12.4 -1.9 c -4 -1.3 -7.4 -2.9 -10.2 -4.7 l -4.9 9.2 c 2.7 2.1 6.5 3.9 11.3 5.3 c 4.8 1.5 9.9 2.2 15.2 2.2 c 5.7 0 10.7 -0.8 14.8 -2.4 c 4.1 -1.6 7.3 -3.8 9.6 -6.6 c 2.3 -2.8 3.4 -6.2 3.4 -10.1 c 0 -3.6 -0.7 -6.6 -2.2 -8.7 C 736.7 389.2 734.8 387.5 732.4 386.3 z" stroke-linecap="round"/>
</g>
		<g transform="matrix(1 0 0 1 99.2 2.2)" id="Layer_1">
<path style="stroke: none; stroke-width: 1; stroke-dasharray: none; stroke-linecap: butt; stroke-dashoffset: 0; stroke-linejoin: miter; stroke-miterlimit: 4; is-custom-font: none; font-file-url: none; fill: rgb(30,30,30); fill-rule: nonzero; opacity: 1;" transform=" translate(-782.2, -386.2)" d="M 774.6 366.5 c 3.3 -1.9 7.1 -2.8 11.3 -2.8 c 3.5 0 6.7 0.7 9.8 2.2 c 3 1.5 5.6 3.8 7.7 7 l 8.9 -5.7 c -2.5 -4.5 -6 -7.9 -10.6 -10.3 c -4.6 -2.3 -9.8 -3.5 -15.6 -3.5 c -6.6 0 -12.4 1.4 -17.5 4.2 c -5.1 2.8 -9.2 6.7 -12.1 11.6 c -2.9 4.9 -4.4 10.6 -4.4 17 c 0 6.4 1.5 12.1 4.4 17 c 2.9 4.9 6.9 8.8 12.1 11.6 c 5.1 2.8 11 4.2 17.5 4.2 c 5.8 0 11 -1.2 15.6 -3.6 c 4.6 -2.4 8.1 -5.8 10.6 -10.3 l -8.9 -5.6 c -2.1 3.2 -4.7 5.5 -7.7 7 c -3 1.5 -6.3 2.2 -9.8 2.2 c -4.2 0 -8 -0.9 -11.3 -2.8 c -3.3 -1.9 -5.9 -4.5 -7.9 -7.9 c -1.9 -3.4 -2.9 -7.4 -2.9 -12 c 0 -4.6 1 -8.6 2.9 -11.9 C 768.7 371 771.3 368.4 774.6 366.5 z" stroke-linecap="round"/>
</g>
		<g transform="matrix(1 0 0 1 170.45 2.3)" id="Layer_1">
<path style="stroke: none; stroke-width: 1; stroke-dasharray: none; stroke-linecap: butt; stroke-dashoffset: 0; stroke-linejoin: miter; stroke-miterlimit: 4; is-custom-font: none; font-file-url: none; fill: rgb(30,30,30); fill-rule: nonzero; opacity: 1;" transform=" translate(-853.45, -386.3)" d="M 853.7 353.5 c -5.1 0 -10 0.7 -14.6 2.1 c -4.7 1.4 -8.6 3.5 -11.9 6.1 l 4.9 8.7 c 2.5 -2.1 5.6 -3.8 9.2 -5 c 3.6 -1.3 7.4 -1.9 11.2 -1.9 c 5.7 0 10 1.4 12.9 4.1 c 2.9 2.7 4.3 6.5 4.3 11.5 v 2.3 h -18.4 c -6.4 0 -11.5 0.8 -15.2 2.5 s -6.5 4 -8.1 6.8 c -1.7 2.8 -2.5 6 -2.5 9.5 c 0 3.6 1 6.9 2.9 9.8 c 1.9 2.9 4.7 5.1 8.3 6.7 c 3.6 1.6 7.8 2.4 12.6 2.4 c 5.9 0 10.8 -1.1 14.7 -3.3 c 2.7 -1.6 4.9 -3.5 6.4 -5.9 v 8.5 h 11 v -38.8 c 0 -8.8 -2.4 -15.4 -7.2 -19.7 C 869.4 355.7 862.6 353.5 853.7 353.5 z M 862.5 407.3 c -3.3 1.9 -7.1 2.9 -11.5 2.9 c -4.4 0 -7.9 -0.9 -10.4 -2.9 c -2.5 -1.9 -3.8 -4.4 -3.8 -7.6 c 0 -2.7 1 -5.1 3 -7 c 2 -1.9 5.9 -2.9 11.8 -2.9 h 18 v 9 C 868.2 402.5 865.8 405.3 862.5 407.3 z" stroke-linecap="round"/>
</g>
		<g transform="matrix(1 0 0 1 247.2 -10.15)" id="Layer_1">
<path style="stroke: none; stroke-width: 1; stroke-dasharray: none; stroke-linecap: butt; stroke-dashoffset: 0; stroke-linejoin: miter; stroke-miterlimit: 4; is-custom-font: none; font-file-url: none; fill: rgb(30,30,30); fill-rule: nonzero; opacity: 1;" transform=" translate(-930.2, -373.85)" d="M 951.9 363.9 c -2.2 -2.8 -4.8 -5.1 -7.8 -6.7 c -4.4 -2.4 -9.3 -3.6 -14.7 -3.6 c -6.2 0 -11.8 1.4 -16.7 4.1 c -4.9 2.7 -8.8 6.6 -11.6 11.5 c -2.8 4.9 -4.2 10.6 -4.2 17.2 c 0 6.6 1.4 12.3 4.2 17.2 c 2.8 4.9 6.7 8.8 11.6 11.5 c 4.9 2.8 10.5 4.1 16.7 4.1 c 5.6 0 10.6 -1.2 14.9 -3.7 c 3.1 -1.8 5.8 -4.2 8 -7.2 v 10.2 h 11.2 v -90 h -11.6 V 363.9 z M 949.2 398.2 c -1.9 3.4 -4.5 6.1 -7.8 7.9 c -3.3 1.9 -6.9 2.8 -11 2.8 c -4.1 0 -7.8 -0.9 -11 -2.8 c -3.2 -1.9 -5.8 -4.5 -7.8 -7.9 c -1.9 -3.4 -2.9 -7.4 -2.9 -12 c 0 -4.6 1 -8.6 2.9 -11.9 c 1.9 -3.4 4.5 -6 7.8 -7.8 c 3.2 -1.9 6.9 -2.8 11 -2.8 c 4 0 7.7 0.9 11 2.8 c 3.3 1.9 5.9 4.5 7.8 7.8 c 1.9 3.4 2.9 7.3 2.9 11.9 C 952 390.8 951.1 394.8 949.2 398.2 z" stroke-linecap="round"/>
</g>
		<g transform="matrix(1 0 0 1 308.55 -49.8)" id="Layer_1">
<path style="stroke: none; stroke-width: 1; stroke-dasharray: none; stroke-linecap: butt; stroke-dashoffset: 0; stroke-linejoin: miter; stroke-miterlimit: 4; is-custom-font: none; font-file-url: none; fill: rgb(30,30,30); fill-rule: nonzero; opacity: 1;" transform=" translate(-991.55, -334.2)" d="M 991.5 326.6 c -2.3 0 -4.1 0.7 -5.6 2.2 c -1.5 1.5 -2.2 3.3 -2.2 5.5 c 0 2.1 0.7 3.9 2.2 5.3 c 1.5 1.5 3.4 2.2 5.6 2.2 c 2.3 0 4.2 -0.7 5.7 -2.2 c 1.5 -1.5 2.2 -3.3 2.2 -5.5 c 0 -2.1 -0.7 -3.9 -2.2 -5.3 C 995.6 327.3 993.8 326.6 991.5 326.6 z" stroke-linecap="round"/>
</g>
		<g transform="matrix(1 0 0 1 308.5 2.25)" id="Layer_1">
<rect style="stroke: none; stroke-width: 1; stroke-dasharray: none; stroke-linecap: butt; stroke-dashoffset: 0; stroke-linejoin: miter; stroke-miterlimit: 4; is-custom-font: none; font-file-url: none; fill: rgb(30,30,30); fill-rule: nonzero; opacity: 1;" x="-5.8" y="-32.15" rx="0" ry="0" width="11.6" height="64.3"/>
</g>
		<g transform="matrix(1 0 0 1 362.75 2.4)" id="Layer_1">
<path style="stroke: none; stroke-width: 1; stroke-dasharray: none; stroke-linecap: butt; stroke-dashoffset: 0; stroke-linejoin: miter; stroke-miterlimit: 4; is-custom-font: none; font-file-url: none; fill: rgb(30,30,30); fill-rule: nonzero; opacity: 1;" transform=" translate(-1045.75, -386.4)" d="M 1066.4 360 c -4.8 -4.3 -11.6 -6.4 -20.4 -6.4 c -5.1 0 -10 0.7 -14.6 2.1 c -4.7 1.4 -8.6 3.5 -11.9 6.1 l 4.9 8.7 c 2.5 -2.1 5.6 -3.8 9.2 -5 c 3.6 -1.3 7.4 -1.9 11.2 -1.9 c 5.7 0 10 1.4 12.9 4.1 c 2.9 2.7 4.3 6.5 4.3 11.5 v 2.3 h -18.4 c -6.4 0 -11.5 0.8 -15.2 2.5 s -6.5 4 -8.1 6.8 c -1.7 2.8 -2.5 6 -2.5 9.5 c 0 3.6 1 6.9 2.9 9.8 c 1.9 2.9 4.7 5.1 8.3 6.7 c 3.6 1.6 7.8 2.4 12.6 2.4 c 5.9 0 10.8 -1.1 14.7 -3.3 c 2.7 -1.6 4.9 -3.5 6.4 -5.9 v 8.5 h 11 v -38.8 C 1073.5 370.8 1071.1 364.2 1066.4 360 z M 1054.8 407.3 c -3.3 1.9 -7.1 2.9 -11.5 2.9 c -4.4 0 -7.9 -0.9 -10.4 -2.9 c -2.5 -1.9 -3.8 -4.4 -3.8 -7.6 c 0 -2.7 1 -5.1 3 -7 c 2 -1.9 5.9 -2.9 11.8 -2.9 h 18 v 9 C 1060.4 402.5 1058 405.3 1054.8 407.3 z" stroke-linecap="round"/>
</g>
</g>
</g>
</svg>