<svg version="1.1" id="home" xmlns="http://www.w3.org/2000/svg" xmlns:xlink="http://www.w3.org/1999/xlink" x="0px" y="0px"
	 viewBox="0 0 149 34" style="enable-background:new 0 0 149 34;" xml:space="preserve"
>
	<path d="M32.84 22.157L16.42 30.3673V19.4202L32.84 11.21V22.157Z" fill="#01497A"/>
	<path d="M0 22.157L16.42 30.3673V19.4202L0 11.21V22.157Z" fill="#0064C8"/>
	<path d="M5.473 8.47353L16.42 13.947V3L5.473 8.47353Z" fill="#3089D1"/>
	<path d="M51.732 26.36C50.004 26.36 48.532 25.984 47.316 25.232C46.1 24.472 45.168 23.416 44.52 22.064C43.88 20.712 43.56 19.144 43.56 17.36C43.56 15.576 43.88 14.008 44.52 12.656C45.168 11.304 46.1 10.252 47.316 9.5C48.532 8.74 50.004 8.36 51.732 8.36C53.724 8.36 55.372 8.864 56.676 9.872C57.988 10.88 58.9 12.236 59.412 13.94L56.868 14.624C56.532 13.416 55.932 12.468 55.068 11.78C54.212 11.092 53.1 10.748 51.732 10.748C50.508 10.748 49.488 11.024 48.672 11.576C47.856 12.128 47.24 12.9 46.824 13.892C46.416 14.884 46.212 16.04 46.212 17.36C46.204 18.68 46.404 19.836 46.812 20.828C47.228 21.82 47.844 22.592 48.66 23.144C49.484 23.696 50.508 23.972 51.732 23.972C53.1 23.972 54.212 23.628 55.068 22.94C55.932 22.244 56.532 21.296 56.868 20.096L59.412 20.78C58.9 22.484 57.988 23.84 56.676 24.848C55.372 25.856 53.724 26.36 51.732 26.36ZM65.7113 26.36C64.7513 26.36 63.9473 26.184 63.2993 25.832C62.6513 25.472 62.1593 25 61.8233 24.416C61.4953 23.824 61.3313 23.176 61.3313 22.472C61.3313 21.816 61.4473 21.24 61.6793 20.744C61.9113 20.248 62.2553 19.828 62.7113 19.484C63.1673 19.132 63.7273 18.848 64.3913 18.632C64.9673 18.464 65.6193 18.316 66.3473 18.188C67.0753 18.06 67.8393 17.94 68.6393 17.828C69.4473 17.716 70.2473 17.604 71.0393 17.492L70.1273 17.996C70.1433 16.98 69.9273 16.228 69.4793 15.74C69.0393 15.244 68.2793 14.996 67.1993 14.996C66.5193 14.996 65.8953 15.156 65.3273 15.476C64.7593 15.788 64.3633 16.308 64.1393 17.036L61.7993 16.316C62.1193 15.204 62.7273 14.32 63.6233 13.664C64.5273 13.008 65.7273 12.68 67.2233 12.68C68.3833 12.68 69.3913 12.88 70.2473 13.28C71.1113 13.672 71.7433 14.296 72.1433 15.152C72.3513 15.576 72.4793 16.024 72.5273 16.496C72.5753 16.968 72.5993 17.476 72.5993 18.02V26H70.3793V23.036L70.8113 23.42C70.2753 24.412 69.5913 25.152 68.7593 25.64C67.9353 26.12 66.9193 26.36 65.7113 26.36ZM66.1553 24.308C66.8673 24.308 67.4793 24.184 67.9913 23.936C68.5033 23.68 68.9153 23.356 69.2273 22.964C69.5393 22.572 69.7433 22.164 69.8393 21.74C69.9753 21.356 70.0513 20.924 70.0673 20.444C70.0913 19.964 70.1033 19.58 70.1033 19.292L70.9193 19.592C70.1273 19.712 69.4073 19.82 68.7593 19.916C68.1113 20.012 67.5233 20.108 66.9953 20.204C66.4753 20.292 66.0113 20.4 65.6033 20.528C65.2593 20.648 64.9513 20.792 64.6793 20.96C64.4153 21.128 64.2033 21.332 64.0433 21.572C63.8913 21.812 63.8153 22.104 63.8153 22.448C63.8153 22.784 63.8993 23.096 64.0673 23.384C64.2353 23.664 64.4913 23.888 64.8353 24.056C65.1793 24.224 65.6193 24.308 66.1553 24.308ZM80.6713 26.348C79.0953 26.348 77.8113 26 76.8193 25.304C75.8273 24.608 75.2193 23.628 74.9953 22.364L77.5633 21.968C77.7233 22.64 78.0913 23.172 78.6673 23.564C79.2513 23.948 79.9753 24.14 80.8393 24.14C81.6233 24.14 82.2353 23.98 82.6753 23.66C83.1233 23.34 83.3473 22.9 83.3473 22.34C83.3473 22.012 83.2673 21.748 83.1073 21.548C82.9553 21.34 82.6313 21.144 82.1353 20.96C81.6393 20.776 80.8833 20.548 79.8673 20.276C78.7553 19.988 77.8713 19.68 77.2153 19.352C76.5673 19.016 76.1033 18.628 75.8233 18.188C75.5513 17.74 75.4153 17.2 75.4153 16.568C75.4153 15.784 75.6233 15.1 76.0393 14.516C76.4553 13.932 77.0393 13.48 77.7913 13.16C78.5513 12.84 79.4393 12.68 80.4553 12.68C81.4473 12.68 82.3313 12.836 83.1073 13.148C83.8833 13.46 84.5113 13.904 84.9913 14.48C85.4713 15.048 85.7593 15.716 85.8553 16.484L83.2873 16.952C83.1993 16.328 82.9073 15.836 82.4113 15.476C81.9153 15.116 81.2713 14.92 80.4793 14.888C79.7193 14.856 79.1033 14.984 78.6313 15.272C78.1593 15.552 77.9233 15.94 77.9233 16.436C77.9233 16.724 78.0113 16.968 78.1873 17.168C78.3713 17.368 78.7233 17.56 79.2433 17.744C79.7633 17.928 80.5313 18.148 81.5473 18.404C82.6353 18.684 83.4993 18.996 84.1393 19.34C84.7793 19.676 85.2353 20.08 85.5073 20.552C85.7873 21.016 85.9273 21.58 85.9273 22.244C85.9273 23.524 85.4593 24.528 84.5233 25.256C83.5953 25.984 82.3113 26.348 80.6713 26.348ZM94.1265 26.36C92.7985 26.36 91.6705 26.064 90.7425 25.472C89.8145 24.88 89.1025 24.068 88.6065 23.036C88.1185 22.004 87.8705 20.832 87.8625 19.52C87.8705 18.184 88.1265 17.004 88.6305 15.98C89.1345 14.948 89.8545 14.14 90.7905 13.556C91.7265 12.972 92.8505 12.68 94.1625 12.68C95.5785 12.68 96.7865 13.032 97.7865 13.736C98.7945 14.44 99.4585 15.404 99.7785 16.628L97.2825 17.348C97.0345 16.62 96.6265 16.056 96.0585 15.656C95.4985 15.248 94.8545 15.044 94.1265 15.044C93.3025 15.044 92.6265 15.24 92.0985 15.632C91.5705 16.016 91.1785 16.544 90.9225 17.216C90.6665 17.888 90.5345 18.656 90.5265 19.52C90.5345 20.856 90.8385 21.936 91.4385 22.76C92.0465 23.584 92.9425 23.996 94.1265 23.996C94.9345 23.996 95.5865 23.812 96.0825 23.444C96.5865 23.068 96.9705 22.532 97.2345 21.836L99.7785 22.436C99.3545 23.7 98.6545 24.672 97.6785 25.352C96.7025 26.024 95.5185 26.36 94.1265 26.36ZM105.719 26.36C104.759 26.36 103.955 26.184 103.307 25.832C102.659 25.472 102.167 25 101.831 24.416C101.503 23.824 101.339 23.176 101.339 22.472C101.339 21.816 101.455 21.24 101.687 20.744C101.919 20.248 102.263 19.828 102.719 19.484C103.175 19.132 103.735 18.848 104.399 18.632C104.975 18.464 105.627 18.316 106.355 18.188C107.083 18.06 107.847 17.94 108.647 17.828C109.455 17.716 110.255 17.604 111.047 17.492L110.135 17.996C110.151 16.98 109.935 16.228 109.487 15.74C109.047 15.244 108.287 14.996 107.207 14.996C106.527 14.996 105.903 15.156 105.335 15.476C104.767 15.788 104.371 16.308 104.147 17.036L101.807 16.316C102.127 15.204 102.735 14.32 103.631 13.664C104.535 13.008 105.735 12.68 107.231 12.68C108.391 12.68 109.399 12.88 110.255 13.28C111.119 13.672 111.751 14.296 112.151 15.152C112.359 15.576 112.487 16.024 112.535 16.496C112.583 16.968 112.607 17.476 112.607 18.02V26H110.387V23.036L110.819 23.42C110.283 24.412 109.599 25.152 108.767 25.64C107.943 26.12 106.927 26.36 105.719 26.36ZM106.163 24.308C106.875 24.308 107.487 24.184 107.999 23.936C108.511 23.68 108.923 23.356 109.235 22.964C109.547 22.572 109.751 22.164 109.847 21.74C109.983 21.356 110.059 20.924 110.075 20.444C110.099 19.964 110.111 19.58 110.111 19.292L110.927 19.592C110.135 19.712 109.415 19.82 108.767 19.916C108.119 20.012 107.531 20.108 107.003 20.204C106.483 20.292 106.019 20.4 105.611 20.528C105.267 20.648 104.959 20.792 104.687 20.96C104.423 21.128 104.211 21.332 104.051 21.572C103.899 21.812 103.823 22.104 103.823 22.448C103.823 22.784 103.907 23.096 104.075 23.384C104.243 23.664 104.499 23.888 104.843 24.056C105.187 24.224 105.627 24.308 106.163 24.308ZM120.871 26.36C119.663 26.36 118.619 26.06 117.739 25.46C116.867 24.86 116.191 24.044 115.711 23.012C115.239 21.972 115.003 20.804 115.003 19.508C115.003 18.204 115.243 17.04 115.723 16.016C116.203 14.984 116.883 14.172 117.763 13.58C118.651 12.98 119.703 12.68 120.919 12.68C122.143 12.68 123.171 12.98 124.003 13.58C124.843 14.172 125.475 14.984 125.899 16.016C126.331 17.048 126.547 18.212 126.547 19.508C126.547 20.804 126.331 21.968 125.899 23C125.467 24.032 124.831 24.852 123.991 25.46C123.151 26.06 122.111 26.36 120.871 26.36ZM121.219 24.092C122.043 24.092 122.715 23.896 123.235 23.504C123.755 23.112 124.135 22.572 124.375 21.884C124.615 21.196 124.735 20.404 124.735 19.508C124.735 18.612 124.611 17.82 124.363 17.132C124.123 16.444 123.747 15.908 123.235 15.524C122.731 15.14 122.087 14.948 121.303 14.948C120.471 14.948 119.787 15.152 119.251 15.56C118.715 15.968 118.315 16.516 118.051 17.204C117.795 17.892 117.667 18.66 117.667 19.508C117.667 20.364 117.795 21.14 118.051 21.836C118.315 22.524 118.707 23.072 119.227 23.48C119.755 23.888 120.419 24.092 121.219 24.092ZM124.735 26V16.676H124.447V8.72H126.967V26H124.735ZM130.565 10.916V8.48H133.073V10.916H130.565ZM130.565 26V13.04H133.073V26H130.565ZM140.336 26.36C139.376 26.36 138.572 26.184 137.924 25.832C137.276 25.472 136.784 25 136.448 24.416C136.12 23.824 135.956 23.176 135.956 22.472C135.956 21.816 136.072 21.24 136.304 20.744C136.536 20.248 136.88 19.828 137.336 19.484C137.792 19.132 138.352 18.848 139.016 18.632C139.592 18.464 140.244 18.316 140.972 18.188C141.7 18.06 142.464 17.94 143.264 17.828C144.072 17.716 144.872 17.604 145.664 17.492L144.752 17.996C144.768 16.98 144.552 16.228 144.104 15.74C143.664 15.244 142.904 14.996 141.824 14.996C141.144 14.996 140.52 15.156 139.952 15.476C139.384 15.788 138.988 16.308 138.764 17.036L136.424 16.316C136.744 15.204 137.352 14.32 138.248 13.664C139.152 13.008 140.352 12.68 141.848 12.68C143.008 12.68 144.016 12.88 144.872 13.28C145.736 13.672 146.368 14.296 146.768 15.152C146.976 15.576 147.104 16.024 147.152 16.496C147.2 16.968 147.224 17.476 147.224 18.02V26H145.004V23.036L145.436 23.42C144.9 24.412 144.216 25.152 143.384 25.64C142.56 26.12 141.544 26.36 140.336 26.36ZM140.78 24.308C141.492 24.308 142.104 24.184 142.616 23.936C143.128 23.68 143.54 23.356 143.852 22.964C144.164 22.572 144.368 22.164 144.464 21.74C144.6 21.356 144.676 20.924 144.692 20.444C144.716 19.964 144.728 19.58 144.728 19.292L145.544 19.592C144.752 19.712 144.032 19.82 143.384 19.916C142.736 20.012 142.148 20.108 141.62 20.204C141.1 20.292 140.636 20.4 140.228 20.528C139.884 20.648 139.576 20.792 139.304 20.96C139.04 21.128 138.828 21.332 138.668 21.572C138.516 21.812 138.44 22.104 138.44 22.448C138.44 22.784 138.524 23.096 138.692 23.384C138.86 23.664 139.116 23.888 139.46 24.056C139.804 24.224 140.244 24.308 140.78 24.308Z" fill="black"/>
</svg>
